<?xml version="1.0" encoding="UTF-8"?><svg width="16" height="16" viewBox="0 0 16 16" fill="none" xmlns="http://www.w3.org/2000/svg">
<path d="M0 4C0 1.79086 1.79086 0 4 0H12C14.2091 0 16 1.79086 16 4V12C16 14.2091 14.2091 16 12 16H4C1.79086 16 0 14.2091 0 12V4Z" fill="white"/>
<path d="M11.5 4.83203L4.5 11.832M6.5 5.58203C6.5 6.27239 5.94036 6.83203 5.25 6.83203C4.55964 6.83203 4 6.27239 4 5.58203C4 4.89168 4.55964 4.33203 5.25 4.33203C5.94036 4.33203 6.5 4.89168 6.5 5.58203ZM12 11.082C12 11.7724 11.4404 12.332 10.75 12.332C10.0596 12.332 9.5 11.7724 9.5 11.082C9.5 10.3917 10.0596 9.83203 10.75 9.83203C11.4404 9.83203 12 10.3917 12 11.082Z" stroke="black" stroke-linecap="round" stroke-linejoin="round"/>
</svg>
