<?xml version="1.0" encoding="UTF-8"?><svg width="80" height="80" viewBox="0 0 80 80" fill="none" xmlns="http://www.w3.org/2000/svg">
<g clip-path="url(#clip0_2019_18326)">
<g filter="url(#filter0_d_2019_18326)">
<path d="M16.0909 4H63.7636C67.2909 4 70.7091 5.45455 73.1818 8C75.5454 10.4364 76.8909 13.7091 76.8545 17.0909V62.9091C76.8545 66.5091 75.3636 69.9636 72.7454 72.4364C70.3454 74.7273 67.1091 76 63.8 76H16.0909C12.0545 76 8.23636 74.1091 5.76364 70.9091C3.94545 68.6182 3 65.8182 3 62.9091V17.0909C3 13.6 4.41818 10.2182 6.92727 7.74545C9.36364 5.30909 12.6364 4 16.0909 4Z" fill="#EB1000"/>
<path d="M60.4177 58.1074H51.6541C50.8905 58.1074 50.1632 57.671 49.8723 56.9438L40.345 34.6892C40.2723 34.471 40.0541 34.3256 39.8359 34.3983C39.6905 34.4347 39.5814 34.5438 39.545 34.6892L33.6177 48.8347C33.5086 49.0892 33.6177 49.3801 33.8723 49.4892C33.945 49.4892 34.0177 49.5256 34.0541 49.5256H40.5632C40.9632 49.5256 41.3268 49.7801 41.4723 50.1438L44.3086 56.5074C44.5632 57.0892 44.3086 57.7801 43.6905 58.0347C43.545 58.1074 43.3996 58.1438 43.2177 58.1438H19.4723C18.8541 58.1438 18.3814 57.6347 18.4177 57.0165C18.4177 56.871 18.4177 56.7256 18.4905 56.6165L33.5814 20.6529C33.9086 19.8892 34.6723 19.3801 35.5086 19.3801H44.2359C45.0723 19.3801 45.8359 19.8892 46.1632 20.6529L61.3632 56.5801C61.5814 57.1256 61.3632 57.7801 60.7814 57.9983C60.6723 58.0347 60.5268 58.071 60.3814 58.071L60.4177 58.1074Z" fill="white"/>
</g>
</g>
<defs>
<filter id="filter0_d_2019_18326" x="-1.11429" y="-0.114286" width="82.0838" height="80.2286" filterUnits="userSpaceOnUse" color-interpolation-filters="sRGB">
<feFlood flood-opacity="0" result="BackgroundImageFix"/>
<feColorMatrix in="SourceAlpha" type="matrix" values="0 0 0 0 0 0 0 0 0 0 0 0 0 0 0 0 0 0 127 0" result="hardAlpha"/>
<feOffset/>
<feGaussianBlur stdDeviation="2.05714"/>
<feComposite in2="hardAlpha" operator="out"/>
<feColorMatrix type="matrix" values="0 0 0 0 0 0 0 0 0 0 0 0 0 0 0 0 0 0 0.25 0"/>
<feBlend mode="normal" in2="BackgroundImageFix" result="effect1_dropShadow_2019_18326"/>
<feBlend mode="normal" in="SourceGraphic" in2="effect1_dropShadow_2019_18326" result="shape"/>
</filter>
<clipPath id="clip0_2019_18326">
<rect width="80" height="80" fill="white"/>
</clipPath>
</defs>
</svg>
