<?xml version="1.0" encoding="utf-8"?>
<!-- Generator: Adobe Illustrator 26.1.0, SVG Export Plug-In . SVG Version: 6.00 Build 0)  -->
<svg version="1.1" id="Layer_1" xmlns="http://www.w3.org/2000/svg" xmlns:xlink="http://www.w3.org/1999/xlink" x="0px" y="0px"
	 viewBox="0 0 56 54" style="enable-background:new 0 0 56 54;" xml:space="preserve">
<style type="text/css">
	.st0{fill:#1E3101;}
	.st1{fill:#99E83F;}
</style>
<g id="Layer_2_00000076579508845727717210000003324941937776166796_">
	<g id="Surfaces">
		<g id="Utility_Surface">
			<g id="Outline_no_shadow_copy_7">
				<path class="st0" d="M9.9,0h36.2C51.6,0,56,4.4,56,9.9v34.2c0,5.5-4.4,9.9-9.9,9.9H9.9C4.4,54,0,49.6,0,44.1V9.9
					C0,4.4,4.4,0,9.9,0z"/>
			</g>
		</g>
	</g>
	<g id="Outlined_Mnemonics_Logos">
		<g id="_3D_Object_Assets_Not_Pixel_Snapped_">
			<path class="st1" d="M44.9,18.6l-9.4-4.7c-0.3-0.1-0.6-0.1-0.9,0l-6.7,3.3l-6.7-3.3c-0.3-0.1-0.6-0.1-0.9,0L11,18.6
				c-0.3,0.2-0.6,0.5-0.6,0.9v11.2c0,0.4,0.2,0.7,0.6,0.9l16.5,8.3c0.3,0.1,0.6,0.1,0.9,0l16.5-8.3c0.3-0.2,0.6-0.5,0.6-0.9V19.5
				C45.5,19.1,45.3,18.8,44.9,18.6z M12.5,21.2l14.4,7.2v8.9l-14.4-7.2L12.5,21.2z M43.4,30.1L29,37.3v-8.9l14.4-7.2L43.4,30.1z"/>
		</g>
	</g>
</g>
</svg>
